<?xml version="1.0" encoding="UTF-8" standalone="no"?>
<!-- Created with Inkscape (http://www.inkscape.org/) -->

<svg
   xmlns:dc="http://purl.org/dc/elements/1.1/"
   xmlns:cc="http://creativecommons.org/ns#"
   xmlns:rdf="http://www.w3.org/1999/02/22-rdf-syntax-ns#"
   xmlns:svg="http://www.w3.org/2000/svg"
   xmlns="http://www.w3.org/2000/svg"
   xmlns:sodipodi="http://sodipodi.sourceforge.net/DTD/sodipodi-0.dtd"
   xmlns:inkscape="http://www.inkscape.org/namespaces/inkscape"
   width="744.09448819"
   height="1052.3622047"
   id="svg2"
   version="1.1"
   inkscape:version="0.48.4 r9939"
   sodipodi:docname="kiuini.svg">
  <defs
     id="defs4" />
  <sodipodi:namedview
     id="base"
     pagecolor="#ffffff"
     bordercolor="#666666"
     borderopacity="1.0"
     inkscape:pageopacity="0.0"
     inkscape:pageshadow="2"
     inkscape:zoom="0.4265625"
     inkscape:cx="373.47105"
     inkscape:cy="462.0562"
     inkscape:document-units="px"
     inkscape:current-layer="layer1"
     showgrid="false"
     inkscape:window-width="1314"
     inkscape:window-height="747"
     inkscape:window-x="52"
     inkscape:window-y="21"
     inkscape:window-maximized="1" />
  <metadata
     id="metadata7">
    <rdf:RDF>
      <cc:Work
         rdf:about="">
        <dc:format>image/svg+xml</dc:format>
        <dc:type
           rdf:resource="http://purl.org/dc/dcmitype/StillImage" />
        <dc:title></dc:title>
      </cc:Work>
    </rdf:RDF>
  </metadata>
  <g
     inkscape:label="Layer 1"
     inkscape:groupmode="layer"
     id="layer1">
    <path
       style="fill:#cceeff;stroke:#cceeff;stroke-opacity:1;stroke-width:1.50000000000000000;stroke-miterlimit:4;stroke-dasharray:none;stroke-linecap:round;stroke-linejoin:round;fill-opacity:1"
       d="m 297.80592,734.36643 c -0.31381,-0.50775 -4.07182,-1.1719 -8.35115,-1.47588 -14.60471,-1.03746 -35.2733,-8.21136 -43.7199,-15.17483 -2.57407,-2.12209 -3.04442,-3.71649 -10.04834,-34.06245 -4.90896,-21.26911 -2.95477,-25.67967 9.02917,-20.37861 4.37197,1.93393 5.28895,2.01166 10.37712,0.87956 10.40407,-2.31486 21.08136,-9.18399 21.08136,-13.56248 0,-1.67325 -2.71912,-2.23514 -6.5,-1.34319 -6.709,1.58274 -10.56196,1.81565 -9.85051,0.59549 0.38186,-0.65493 -0.20599,-0.40327 -1.30634,0.55923 -1.10035,0.9625 -2.89279,1.75 -3.9832,1.75 -1.09041,0 -7.80498,1.38172 -14.92126,3.07048 -7.11628,1.68877 -16.07535,3.71015 -19.90904,4.49195 -3.83369,0.78181 -10.80869,2.51153 -15.5,3.84383 -4.69131,1.3323 -15.72965,3.87433 -24.52965,5.64896 -17.45545,3.52011 -21.12332,4.26921 -29.72706,6.07131 -3.60944,0.75602 -6.42275,0.86196 -7.60852,0.28652 -1.03481,-0.50218 -7.63106,-7.88805 -14.65835,-16.41305 -7.02729,-8.525 -15.75346,-18.43806 -19.39148,-22.02903 -13.082507,-12.9133 -17.262627,-17.91213 -16.930757,-20.2468 0.31441,-2.21178 0.39971,-2.22139 15.316167,-1.72417 28.07791,0.93593 60.37323,0.30481 71.42614,-1.39581 5.73437,-0.8823 12.72733,-1.60419 15.5399,-1.60419 2.81257,0 7.57081,-0.62837 10.57386,-1.39639 3.00306,-0.76801 7.92602,-1.72446 10.93993,-2.12544 3.01391,-0.40099 7.28288,-1.36522 9.4866,-2.14274 14.24236,-5.02499 43.59061,-8.46561 54.40472,-6.37808 7.07072,1.36491 18.61448,7.06566 26.07152,12.8751 8.77464,6.83593 23.0254,17.51376 24.91393,18.66755 7.61487,4.65225 20.1233,17.36594 20.1345,20.46489 0.006,1.79648 -2.43163,4.83219 -8.9911,11.19484 -4.95,4.80147 -9,9.20477 -9,9.78511 0,0.58034 1.11315,1.05516 2.47366,1.05516 2.65923,0 21.80085,-4.19759 30.06663,-6.59334 11.39975,-3.30411 36.11087,-7.16172 51.95971,-8.11135 17.58802,-1.05384 42.84451,0.36454 42.07761,2.36303 -0.69632,1.81459 0.38053,1.68951 2.57833,-0.29947 1.55874,-1.41063 2.58855,-1.48546 7.33235,-0.53277 5.2099,1.0463 8.51171,0.77614 8.51171,-0.69643 0,-0.36099 -2.04797,-2.67535 -4.55104,-5.14301 -8.57764,-8.45629 -11.77393,-11.99189 -13.6913,-15.14476 -1.81184,-2.97933 -1.828,-3.35808 -0.28801,-6.74918 0.89735,-1.976 4.42128,-6.6224 7.83095,-10.32533 3.40967,-3.70294 7.7744,-9.08308 9.6994,-11.95586 4.2505,-6.34325 18.16995,-20.54545 21.3044,-21.73716 3.26087,-1.23979 25.97385,-1.25529 34.74071,-0.0237 4.10019,0.576 8.90599,1.21198 10.67956,1.41329 1.77357,0.20131 4.69857,0.69757 6.5,1.1028 1.80143,0.40523 4.40033,0.82849 5.77533,0.94058 5.0575,0.41229 25.06462,3.41458 25.80536,3.87238 2.65936,1.64358 45.29811,4.76487 64.69464,4.73585 8.47245,-0.0127 26.96182,-1.6649 28.36993,-2.53516 0.45974,-0.28414 4.16458,-1.02964 8.23298,-1.65669 4.0684,-0.62704 8.15199,-1.53977 9.07465,-2.0283 5.05668,-2.6774 6.54179,3.46335 1.59728,6.6046 -2.81103,1.78585 -10.35734,10.62702 -18.77794,22 -1.62888,2.2 -3.30705,4.45026 -3.72925,5.00057 -0.42221,0.55032 -2.34265,3.16168 -4.26765,5.80304 -1.925,2.64135 -5.76721,7.8161 -8.53824,11.49943 l -5.03824,6.69696 -9.96176,0.69093 c -5.47897,0.38001 -13.56176,0.40428 -17.96176,0.0539 -4.4,-0.35035 -8.58603,-0.52364 -9.30229,-0.38509 -2.06588,0.39961 -32.37795,-2.84521 -35.69771,-3.82134 -3.66891,-1.07879 -13.76763,-2.67175 -22.5,-3.54912 -3.575,-0.35919 -8.75,-1.21613 -11.5,-1.90432 -7.39631,-1.85092 -17.5,-2.03828 -17.5,-0.32451 0,2.92372 8.31516,8.93947 14.75231,10.67281 4.44271,1.1963 14.56351,2.4732 17.74769,2.23916 1.1,-0.0809 3.57438,-0.26523 5.49863,-0.40973 3.25723,-0.2446 3.55982,-0.0155 4.38558,3.32032 0.9476,3.82803 -0.34043,8.52603 -6.38208,23.27822 -1.60799,3.9263 -4.55964,11.63873 -6.55922,17.13873 -1.99959,5.5 -4.37975,10.73708 -5.28926,11.63796 -4.92938,4.88261 -51.72433,8.35593 -72.65365,5.39266 -27.45637,-3.8874 -56.29388,-4.28982 -77.5,-1.08149 -1.375,0.20803 -7.45,1.11756 -13.5,2.02117 -6.05,0.90361 -13.475,2.32558 -16.5,3.15992 -3.025,0.83434 -8.425,2.16957 -12,2.96717 -3.575,0.7976 -11.21924,2.6033 -16.98719,4.01266 -11.04955,2.69988 -19.02413,3.97928 -33.01281,5.29641 -4.675,0.44018 -9.24198,1.12198 -10.14885,1.51511 -0.90687,0.39313 -1.9056,0.29934 -2.21941,-0.20841 z m 20.86789,-8.73052 c 3.84979,-0.81545 8.21073,-1.48264 9.69098,-1.48264 1.48025,0 2.93281,-0.39069 3.22793,-0.86819 0.29511,-0.47751 2.7872,-1.16675 5.53796,-1.53165 2.75077,-0.3649 9.39837,-1.73194 14.77245,-3.03785 24.17128,-5.87368 52.82137,-10.44378 66.77105,-10.65092 15.45911,-0.22957 37.73672,0.11687 38.51677,0.59897 0.3858,0.23844 14.26407,1.14521 30.8406,2.01505 31.63242,1.65987 38.21851,1.38612 52.14263,-2.16728 3.575,-0.91233 7.25184,-2.37864 8.17076,-3.25846 0.91892,-0.87982 2.77983,-4.74967 4.13536,-8.59967 1.35552,-3.85 3.68514,-10.15 5.17693,-14 3.31448,-8.55396 5.71194,-17.37548 5.02451,-18.48776 -0.53884,-0.87186 -4.32052,-0.23185 -6.00756,1.01672 -1.62873,1.20541 -7.55424,2.29691 -14.5,2.67095 -15.36892,0.82764 -45.01406,0.88091 -51,0.0916 -3.575,-0.47138 -10.55,-1.11323 -15.5,-1.42634 -4.95,-0.3131 -10.35,-0.71654 -12,-0.89652 -7.68783,-0.83859 -30.08187,-1.76975 -40,-1.66324 -12.59308,0.13524 -38.26395,3.86199 -48.82018,7.08743 -10.68341,3.2643 -31.55045,7.92527 -38.67982,8.63973 -3.575,0.35826 -8.525,1.02324 -11,1.47773 -7.02827,1.29063 -34.43898,0.41332 -45.5,-1.45628 -9.80044,-1.65652 -21.87526,-4.87317 -32.17852,-8.57213 -4.53349,-1.62755 -5.33051,-1.67599 -6.39873,-0.38885 -0.96794,1.16629 -0.8787,2.65252 0.43162,7.18859 0.90852,3.14508 2.28926,9.31832 3.06832,13.71832 2.20177,12.43526 4.17175,19.39438 6.09024,21.51429 0.96751,1.06909 4.2854,2.85862 7.37309,3.97673 3.08769,1.11811 6.85836,2.73205 8.37926,3.58652 1.52091,0.85447 5.79591,2.63226 9.5,3.95063 5.91247,2.10439 8.50505,2.3995 21.23472,2.41708 9.07526,0.0125 17.1187,-0.53466 21.49963,-1.46261 z m -16.39698,-10.73264 c -0.46631,-1.2375 -1.17186,-3.73949 -1.56787,-5.55997 -0.48609,-2.23454 -1.52947,-3.61771 -3.21132,-4.25715 -3.67604,-1.39763 -4.5249,-0.28908 -4.15558,5.42689 0.33115,5.12521 0.32283,5.14113 -2.84789,5.44837 -3.06182,0.29668 -3.19946,0.14802 -3.70333,-4 -0.28782,-2.36948 -0.75878,-9.37064 -1.04657,-15.55814 l -0.52326,-11.25 7.52624,0 c 10.93241,0 15.42693,2.83933 15.42693,9.7457 0,1.58245 -0.92496,3.87001 -2.05547,5.08347 -2.01913,2.16728 -2.02246,2.25459 -0.1879,4.93856 2.15755,3.1565 4.39887,10.17165 3.64139,11.39727 -0.28383,0.45925 -1.85063,0.835 -3.48179,0.835 -2.15769,0 -3.19673,-0.61303 -3.81358,-2.25 z m -2.11343,-17.23701 c 2.0809,-2.50733 0.43867,-6.17741 -3.07895,-6.88094 -4.17772,-0.83554 -4.54147,-0.4536 -4.08879,4.2932 0.35219,3.6931 0.64827,4.07475 3.16111,4.07475 1.52489,0 3.32787,-0.66916 4.00663,-1.48701 z m 14.56334,17.23701 c -0.21157,-0.6875 -0.63612,-7.59849 -0.94345,-15.35775 l -0.55878,-14.10774 6.72484,-0.63515 c 11.84651,-1.11887 12.22483,-1.04767 12.22483,2.30074 0,2.88998 -0.11717,2.9562 -5.75,3.25 l -5.75,0.2999 0,3.35211 0,3.35211 5.75,-0.41592 c 5.68156,-0.41097 5.75,-0.38382 5.75,2.28126 0,2.94168 -1.88061,3.89213 -7.75,3.91679 -3.06244,0.0129 -3.25,0.22146 -3.25,3.61456 l 0,3.6009 6.25,-0.3509 c 6.09526,-0.34222 6.25749,-0.28637 6.55261,2.25595 0.27946,2.40739 -0.0564,2.65608 -4.38957,3.25 -7.66942,1.05122 -14.43526,0.77492 -14.86048,-0.60686 z m -51.80256,-0.53072 c -2.50384,-0.3206 -2.75084,-0.7266 -2.75935,-4.5357 -0.005,-2.30097 -0.29989,-9.3111 -0.65499,-15.57806 l -0.64564,-11.39449 7.361,0.72534 c 4.04855,0.39893 8.61068,1.37157 10.13806,2.16141 3.81939,1.97508 6.05289,6.5955 5.25198,10.86471 -0.92911,4.95258 -3.68182,6.97379 -9.77828,7.17982 l -5.16278,0.17449 0.33374,4.98082 c 0.36521,5.45035 -0.006,5.94375 -4.08374,5.42166 z m 10.25,-17.21928 c 2.40751,-2.40751 2.44663,-2.91734 0.4433,-5.77749 -1.00909,-1.44067 -2.5921,-2.22251 -4.5,-2.22251 -2.81447,0 -2.9433,0.19377 -2.9433,4.42668 0,4.30155 0.44132,4.86824 4.25,5.45732 0.4125,0.0638 1.65,-0.784 2.75,-1.884 z m 64.64646,17.23697 c -0.25937,-0.41966 -0.6009,-7.50716 -0.75895,-15.75 l -0.28738,-14.98697 4.94994,-0.66239 c 8.54568,-1.14358 12.13267,-0.91582 14.36956,0.91239 2.33678,1.90985 3.68558,7.70251 2.70408,11.61312 -0.74364,2.96289 -5.68478,6.20211 -10.95027,7.17857 l -3.82655,0.70962 0.68725,4.99691 c 0.51143,3.71854 0.33914,5.21748 -0.67344,5.85904 -1.69285,1.07256 -5.58136,1.15373 -6.21424,0.12971 z m 13.75543,-20.44154 c 1.39605,-3.96483 0.17347,-5.79543 -3.87051,-5.79543 -3.49855,0 -3.53138,0.0403 -3.53138,4.33333 0,2.38334 0.25347,4.58681 0.56326,4.8966 1.32202,1.32202 5.98914,-1.0219 6.83863,-3.4345 z m 8.59811,16.68947 c 0,-0.8333 0.65569,-4.0958 1.45708,-7.25 0.80139,-3.15419 2.40152,-9.5599 3.55583,-14.2349 1.15432,-4.675 2.41113,-8.79805 2.79292,-9.16234 0.38179,-0.36429 2.44052,-0.81429 4.57494,-1 l 3.88076,-0.33766 4.7322,13.5 c 2.60271,7.425 5.06701,14.2875 5.47622,15.25 0.55434,1.30383 0.27058,1.75348 -1.11296,1.76365 -1.02135,0.008 -2.84008,0.27731 -4.04164,0.59955 -1.88695,0.50605 -2.33874,0.0137 -3.31535,-3.6132 -0.97661,-3.62687 -1.4284,-4.11925 -3.31535,-3.6132 -1.20156,0.32224 -3.14707,0.59204 -4.32336,0.59955 -1.67559,0.0107 -2.29095,0.82518 -2.84178,3.76136 -0.38669,2.06124 -1.22427,4.07935 -1.86129,4.48469 -2.07285,1.31896 -5.65822,0.84531 -5.65822,-0.7475 z m 14.63573,-14.94804 c -0.99795,-5.41175 -1.97318,-8.62738 -2.76489,-9.11669 -0.47896,-0.29601 -0.92215,-0.17415 -0.98486,0.27081 -0.0627,0.44496 -0.26831,2.15902 -0.45689,3.80902 -0.18858,1.65 -0.59784,4.02045 -0.90947,5.26767 -0.50324,2.0141 -0.22787,2.24187 2.46256,2.03686 2.45047,-0.18671 2.9574,-0.61993 2.65355,-2.26767 z m 15.90589,11.21314 c -0.21758,-0.6875 -0.58761,-7.87808 -0.82228,-15.97906 -0.48334,-16.68518 -1.0638,-15.57718 8.28066,-15.80648 8.95601,-0.21977 9.9058,-0.0587 12,2.03554 2.41327,2.41327 2.68292,8.57999 0.51077,11.68116 -1.32548,1.89238 -1.30997,2.54908 0.14101,5.9725 0.89662,2.11549 1.96939,5.30884 2.38391,7.09634 0.74487,3.21196 0.71085,3.25 -2.90628,3.25 -3.47686,0 -3.74675,-0.24432 -5.39436,-4.88328 -1.18864,-3.34668 -2.41843,-5.06217 -3.90826,-5.45176 -3.41329,-0.8926 -3.99482,0.14197 -3.28286,5.84033 0.58715,4.69944 0.42841,5.43915 -1.37431,6.40393 -2.70922,1.44993 -5.14049,1.38115 -5.628,-0.15922 z m 12.23587,-19.3067 c 3.02115,-2.11609 2.85503,-5.25232 -0.34259,-6.46805 -4.71504,-1.79266 -5.4349,-1.3258 -5.4349,3.52475 0,5.01738 1.63045,5.848 5.77749,2.9433 z m 15.32059,10.8067 c 1.07631,-3.7125 2.90536,-10.48467 4.06456,-15.04927 l 2.10765,-8.29927 4.41506,0.29927 4.41505,0.29927 2.52046,7 c 1.38626,3.85 3.41579,9.7 4.51007,13 1.09428,3.3 2.37124,6.71535 2.83768,7.58966 0.70059,1.31323 0.18869,1.61549 -2.94382,1.73824 -3.32828,0.13041 -3.94323,-0.21678 -5.02966,-2.83966 -1.10922,-2.67788 -1.69513,-2.98824 -5.64145,-2.98824 -4.09298,0 -4.44601,0.21167 -5.00368,3 -0.5405,2.70249 -0.97729,3 -4.40442,3 l -3.80441,0 1.95691,-6.75 z m 13.51174,-7 c -0.34284,-1.5125 -0.90418,-4.2125 -1.24742,-6 -0.88146,-4.5903 -1.83559,-4.04416 -3.19065,1.82629 -1.59374,6.90445 -1.58833,6.92371 1.94483,6.92371 2.88434,0 3.07013,-0.20491 2.49324,-2.75 z m 17.99717,12.16821 c -0.33385,-0.86998 -0.60699,-5.12262 -0.60699,-9.45031 0,-6.45296 0.31483,-8.04523 1.75,-8.85079 2.21307,-1.24219 2.39633,-7.32423 0.25,-8.29682 -0.86514,-0.39204 0.19296,-0.73649 2.5,-0.81384 2.2,-0.0738 5.49144,-0.28035 7.31431,-0.45908 2.58402,-0.25335 3.18997,-9.2e-4 2.75,1.14563 -0.31037,0.80881 -0.56401,2.22127 -0.56365,3.13879 4.9e-4,1.25466 -0.90903,1.66821 -3.66885,1.66821 l -3.6695,0 0.24335,11.75 0.24336,11.75 -2.96752,0 c -1.7835,0 -3.20971,-0.63112 -3.57451,-1.58179 z m 23.62114,-0.064 c -5.19224,-2.18644 -7.40375,-6.66365 -6.98294,-14.13701 0.31648,-5.62054 0.72158,-6.65062 3.84306,-9.77209 2.79309,-2.7931 4.52822,-3.61233 8.69646,-4.106 4.59208,-0.54386 5.67131,-0.29507 9.13629,2.10616 6.68576,4.63324 8.67695,14.34819 4.41841,21.55732 -2.94097,4.97866 -12.46976,7.14835 -19.11128,4.35162 z m 10.11455,-3.46446 c 7.70702,-3.51158 4.94508,-18.88975 -3.39262,-18.88975 -7.93638,0 -10.41766,14.50936 -3.15542,18.45142 3.32109,1.80273 3.52368,1.81629 6.54804,0.43831 z m 15.53566,-7.63975 c -0.0669,-6.4625 -0.17942,-13.09512 -0.25,-14.73915 -0.12499,-2.91101 0.0271,-3.01099 5.81852,-3.82436 7.75232,-1.08878 11.99097,-0.21663 14.50981,2.98555 2.63672,3.35205 2.59719,7.35413 -0.10659,10.79143 -1.37646,1.74988 -1.76843,2.96896 -1.08952,3.38855 0.58323,0.36045 1.94825,2.99197 3.03339,5.84782 l 1.97297,5.19244 -2.85906,0.62796 c -3.75489,0.82471 -4.42918,0.30002 -6.46496,-5.03058 -1.48004,-3.87542 -2.10647,-4.48966 -4.57876,-4.48966 -2.80502,0 -2.86414,0.11353 -2.86414,5.5 l 0,5.5 -3.5,0 -3.5,0 -0.12166,-11.75 z m 12.57461,-5.41052 c 2.74097,-1.24887 3.41507,-4.57146 1.34705,-6.63948 -0.66,-0.66 -2.72171,-1.2 -4.58158,-1.2 -3.33762,0 -3.37451,0.0488 -2.83777,3.75 0.2991,2.0625 0.56081,4.0875 0.58158,4.5 0.0555,1.10285 2.58417,0.91379 5.49072,-0.41052 z m 21.53624,8.91052 c -0.009,-4.54094 -0.74328,-6.49929 -5.43415,-14.5 l -5.42333,-9.25 4.33854,0 c 4.31768,0 4.34952,0.0265 6.62616,5.51933 1.2582,3.03562 2.7181,5.37583 3.24422,5.20046 0.52613,-0.17538 1.58327,-2.76763 2.34922,-5.76057 0.76595,-2.99294 1.71158,-5.72364 2.10139,-6.06823 1.22434,-1.08227 7.20876,-1.88362 7.20876,-0.96528 0,0.48163 -1.8,4.73564 -4,9.45335 -3.24667,6.9622 -4,9.68976 -4,14.48266 0,5.2784 -0.23876,5.969 -2.25,6.50799 -4.40219,1.17975 -4.74956,0.84267 -4.76081,-4.61971 z m -84.31983,-13.16925 c -0.39509,-1.02959 -1.65195,-1.25864 -4.6787,-0.85267 l -4.1385,0.55509 0.32392,-3.39159 c 0.30887,-3.23399 0.50978,-3.3921 4.32392,-3.40275 4.34979,-0.0121 6.41664,1.65016 6.4682,5.20215 0.0378,2.60387 -1.53019,3.89284 -2.29884,1.88977 z m -130.60053,-7.41573 c 1.41286,-0.53777 6.54538,-4.78789 11.4056,-9.44471 10.22115,-9.79339 10.65895,-11.72031 2.66291,-11.72031 -4.46919,0 -20.14441,-1.42152 -27.63734,-2.50632 -1.65,-0.23888 -6.65959,-0.69174 -11.13241,-1.00637 l -8.13242,-0.57205 -3.35861,4.29237 c -6.25385,7.99254 -8.24583,9.54237 -15.163,11.79735 -2.86746,0.93478 -5.21356,2.29917 -5.21356,3.03197 0,1.78018 7.608,3.65077 20.5,5.04035 5.775,0.62246 10.59023,1.21244 10.70051,1.31106 0.83244,0.74447 23.3464,0.54625 25.36832,-0.22334 z m -161.51883,-7.08986 c 0.5225,-0.50866 4.325,-1.39355 8.45,-1.96643 6.98265,-0.96975 42.12562,-9.4503 44.02431,-10.62376 0.72019,-0.4451 21.86242,-5.46376 35.47569,-8.42108 14.08747,-3.06033 38.70059,-4.05673 51,-2.0646 3.3,0.5345 11.85,1.42328 19,1.97507 7.15,0.55179 15.14798,1.17336 17.7733,1.38126 2.62531,0.20791 5.03453,-0.0447 5.35382,-0.56131 0.57384,-0.92849 -10.17852,-11.79431 -11.67114,-11.79431 -0.42486,0 -4.3593,-3.0375 -8.7432,-6.75 -23.26041,-19.69805 -40.35851,-27.31463 -54.50614,-24.28051 -2.64279,0.56678 -6.65626,1.03051 -8.91881,1.03051 -2.26254,0 -11.23342,2.03015 -19.93527,4.51144 -9.04284,2.57853 -19.14867,4.77943 -23.58706,5.13693 -4.27102,0.34401 -8.2155,0.95243 -8.7655,1.35203 -1.65992,1.20603 -9.29523,2.08203 -22.96464,2.63475 -7.13055,0.28832 -13.68554,0.91004 -14.56665,1.3816 -0.88112,0.47155 -14.95953,0.67588 -31.28537,0.45406 -16.32584,-0.22182 -29.68334,-0.12169 -29.68334,0.22252 0,0.34422 2.3625,3.15914 5.25,6.2554 4.91449,5.26978 9.65539,10.54449 26.11126,29.05127 8.54874,9.61418 11.96057,12 17.16052,12 2.24302,0 4.50572,-0.41618 5.02822,-0.92484 z m 1.12974,-9.82516 c -0.24107,-0.4125 -0.72708,-4.8 -1.08002,-9.75 -0.35295,-4.95 -0.90518,-11.61958 -1.22718,-14.8213 l -0.58546,-5.8213 3.34951,0.3213 c 3.18245,0.30527 3.38384,0.5631 4.03755,5.16905 0.37842,2.66626 0.91458,5.0743 1.19147,5.35119 0.27689,0.27689 1.87283,-2.20931 3.54654,-5.5249 3.45885,-6.85194 3.2574,-6.67096 8.47444,-7.61364 l 3.8866,-0.70228 -2.82593,4.82094 c -6.54397,11.16382 -6.54001,9.10436 -0.0342,17.74855 3.18676,4.23421 5.63499,7.8426 5.44052,8.01866 -0.19447,0.17605 -1.79276,0.6283 -3.55176,1.00499 -3.01284,0.6452 -3.47225,0.33196 -7.92746,-5.40507 -5.41085,-6.96763 -6.33548,-6.64719 -6.35905,2.20381 -0.0152,5.69311 -0.0444,5.75 -2.95629,5.75 -1.61754,0 -3.13822,-0.3375 -3.37928,-0.75 z m 28.90026,-5.5 c -0.89174,-4.37982 -2.58,-20.4436 -2.58,-24.54867 0,-3.62709 0.32795,-4.24554 2.54657,-4.80237 1.40061,-0.35154 2.77108,-0.41465 3.04547,-0.14025 0.2744,0.27439 1.29715,7.12048 2.27278,15.21353 l 1.77388,14.71463 -2.38445,0.90656 c -3.5085,1.33393 -4.16771,1.14447 -4.67425,-1.34343 z m 14.45335,-4.7143 c -3.13916,-3.36048 -3.61236,-5.13308 -4.59142,-17.1994 l -0.69948,-8.62082 3.20028,-0.7029 c 1.76015,-0.3866 3.38402,-0.51917 3.60858,-0.29461 0.22456,0.22457 0.70484,4.42989 1.0673,9.34517 0.36245,4.91527 1.30837,10.22324 2.10205,11.79549 1.26227,2.5005 1.83995,2.78069 4.61119,2.23653 5.21229,-1.02349 5.90755,-2.84772 5.18144,-13.59516 -0.35301,-5.225 -0.84964,-10.2289 -1.10362,-11.11979 -0.3334,-1.16944 0.4081,-1.79376 2.66698,-2.24554 1.72082,-0.34416 3.47403,-0.41237 3.89602,-0.15156 0.42199,0.2608 1.08668,5.40262 1.47709,11.42625 0.84234,12.99649 -0.27869,16.50215 -6.37214,19.92686 -5.75156,3.23255 -11.56582,2.92317 -15.04427,-0.80052 z m 29.54333,-2.18195 c -0.48208,-1.48265 -2.14213,-14.73868 -3.0811,-24.60375 l -0.59489,-6.25 3.42618,0 3.42618,0 1.08019,9.25 c 2.44274,20.91791 2.47513,21.75 0.84673,21.75 -0.83402,0 -2.22441,0.27169 -3.08975,0.60375 -0.88786,0.34071 -1.76514,0.0139 -2.01354,-0.75 z m 11.97737,-6.60375 c -0.96034,-7.19917 -2.45782,-25.67956 -2.10909,-26.02829 0.16898,-0.16898 1.88028,-0.56251 3.80288,-0.8745 3.44669,-0.55932 3.58811,-0.43802 10.09733,8.66116 l 6.60169,9.22843 -0.51339,-6.8684 c -0.28236,-3.77762 -0.69188,-8.32948 -0.91005,-10.11526 -0.33932,-2.77753 -0.0377,-3.33694 2.08653,-3.87009 1.36576,-0.34278 2.68038,-0.42606 2.92138,-0.18505 0.77282,0.77281 2.42786,15.04289 2.70258,23.302 l 0.26609,8 -3.14085,0.30522 c -2.88846,0.28069 -3.63175,-0.3542 -9.25,-7.90101 -3.36003,-4.51342 -6.10915,-8.58827 -6.10915,-9.05522 0,-0.46694 -0.49223,-0.84899 -1.09384,-0.84899 -0.71852,0 -0.89763,1.62982 -0.522,4.75 0.31451,2.6125 0.85859,7.3375 1.20906,10.5 l 0.63723,5.75 -3.02139,0 c -2.84886,0 -3.05756,-0.27123 -3.65501,-4.75 z m 31.09042,-8.94866 c -0.36202,-4.84074 -0.94174,-11.83884 -1.28826,-15.55134 l -0.63003,-6.75 3.42747,0 3.42747,0 1.264,13.25 c 0.69521,7.2875 1.35196,14.15 1.45945,15.25 0.15815,1.61845 -0.49111,2.05749 -3.40322,2.30134 l -3.59866,0.30134 -0.65822,-8.80134 z m 264.10553,33.11162 c 5.70761,-0.60541 7.16771,-2.71483 2.66192,-3.84571 -6.95366,-1.74526 -14.77281,-7.54482 -23.44305,-17.388 l -2.53114,-2.87355 -20.10376,-0.71976 c -19.25854,-0.68949 -27.33397,-0.2701 -27.33397,1.4196 0,1.81932 10.36932,10.92744 20.80372,18.2734 4.96275,3.49384 10.13298,5.2291 17.69628,5.93934 4.26074,0.40011 26.00463,-0.14286 32.25,-0.80532 z m 110.27837,-16.95466 c 1.39061,-0.70424 4.76561,-4.50002 7.5,-8.43505 2.7344,-3.93504 6.77163,-9.3631 8.97163,-12.06236 9.82885,-12.05937 15.5,-20.16187 15.5,-22.1452 0,-1.15386 -1.19738,-1.06576 -21.5,1.58179 -18.19282,2.37243 -42.3392,1.27277 -76.5,-3.48391 -4.125,-0.57438 -12,-1.67015 -17.5,-2.43503 -5.5,-0.76489 -14.95,-2.12812 -21,-3.0294 -12.7508,-1.89951 -15.26981,-2.1592 -29.70208,-3.06201 -7.28445,-0.45568 -11.59558,-0.29893 -13.5,0.49083 -3.96556,1.64452 -22.108,20.88455 -27.87842,29.565 -1.44162,2.16863 -3.96098,5.19457 -5.59858,6.72432 -2.96277,2.76764 -3.45436,5.7896 -1.07092,6.58319 0.6875,0.22891 1.25,-0.28047 1.25,-1.13195 0,-3.24229 3.66105,-3.78669 21.32542,-3.17109 21.16056,0.73744 38.49494,2.14866 49.67458,4.04408 4.675,0.79261 11.875,1.94185 16,2.55387 4.125,0.61202 12,1.795 17.5,2.62885 10.82946,1.64184 12.23825,1.8048 23.5,2.71838 4.125,0.33464 10.425,0.85826 14,1.16362 3.575,0.30535 9.425,0.79559 13,1.08942 3.575,0.29383 6.60602,0.63728 6.73561,0.76324 0.92214,0.89628 17.23283,0.0926 19.29276,-0.95059 z m -10.20356,-6.19028 -4.67519,-0.37149 0.29968,-4.19827 c 0.49006,-6.86541 1.59583,-17.96544 2.13666,-21.44826 0.44187,-2.84558 0.88402,-3.25 3.55319,-3.25 l 3.04853,0 -0.55987,4.75 c -0.30792,2.6125 -0.84204,7.97489 -1.18693,11.91641 l -0.62707,7.16641 5.59309,0.69882 c 5.03189,0.62869 5.5931,0.93809 5.5931,3.08358 0,2.57233 -0.62153,2.6503 -13.17519,1.6528 z m -28.36761,-3.13105 c -4.44675,-2.71172 -6.4491,-6.40154 -6.71234,-12.36916 -0.51331,-11.63676 9.25645,-18.71889 19.76536,-14.32799 9.85498,4.11768 10.13379,21.5277 0.42812,26.73291 -4.35823,2.33735 -9.6125,2.32341 -13.48114,-0.0358 z m 11.47022,-5.77183 c 3.06003,-3.89019 2.96771,-13.62476 -0.14993,-15.80844 -3.20342,-2.24376 -6.0862,-1.92145 -8.81746,0.98585 -3.11786,3.31881 -3.41717,12.18984 -0.51933,15.39193 2.64539,2.92312 6.9424,2.66524 9.48672,-0.56934 z m -41.51223,3.26793 c -9.02337,-4.08815 -10.91071,-17.05695 -3.6194,-24.87062 4.72195,-5.06024 14.42554,-4.87803 19.32122,0.36281 5.34535,5.72221 4.56028,17.07147 -1.57991,22.83989 -2.98561,2.80484 -9.82862,3.61306 -14.12191,1.66792 z m 9.52569,-5.7312 c 1.94898,-1.62217 2.52577,-3.20509 2.86209,-7.85465 0.35664,-4.93063 0.0975,-6.14674 -1.69089,-7.93514 -5.64404,-5.64404 -12.61441,-0.13449 -11.79663,9.32435 0.66738,7.71917 5.54974,10.69003 10.62543,6.46544 z m -29.38044,-2.61766 0.64131,-6.28421 -3.35088,-0.0136 c -1.84298,-0.008 -4.32566,-0.27514 -5.51708,-0.59472 -1.98921,-0.53359 -2.22411,-0.10351 -2.87487,5.26365 -0.38976,3.2146 -0.85765,6.10719 -1.03976,6.42799 -0.18211,0.3208 -1.7144,0.38024 -3.4051,0.1321 -2.2663,-0.33262 -2.9483,-0.88 -2.59562,-2.08327 0.26311,-0.89765 0.73953,-4.7821 1.05872,-8.6321 1.59186,-19.2006 1.41686,-18.5 4.62103,-18.5 2.87285,0 2.90181,0.0586 2.90181,5.86995 l 0,5.86995 4.75,0.5504 c 2.6125,0.30272 5.09358,0.22016 5.51352,-0.18347 0.41993,-0.40363 0.8553,-2.84278 0.96748,-5.42035 0.20074,-4.61222 0.25724,-4.68648 3.56594,-4.68648 3.13065,0 3.32516,0.18921 2.8269,2.75 -0.29429,1.5125 -0.80656,6.8 -1.13838,11.75 -0.9351,13.94973 -1.13141,14.55875 -4.60748,14.29388 l -2.95885,-0.22546 0.64131,-6.28421 z m -33.91789,3.68758 c -11.36924,-3.40705 -12.98345,-19.76185 -2.64255,-26.77374 2.96864,-2.01296 4.44302,-2.31518 9.71162,-1.99071 3.41638,0.21041 6.52698,0.69793 6.91244,1.08338 0.38545,0.38546 0.17968,1.84461 -0.45727,3.24256 -0.96455,2.11696 -1.48208,2.36835 -3.0967,1.50423 -3.45416,-1.84861 -7.08812,-1.17333 -10.14701,1.88557 -2.36237,2.36236 -2.92308,3.78398 -2.92308,7.4111 0,3.82174 0.47524,4.88792 3.20114,7.18162 2.61612,2.20131 3.89541,2.60046 7,2.18405 3.64357,-0.48871 3.79886,-0.3908 3.79886,2.39531 0,2.76428 -0.20566,2.90068 -4.25,2.81889 -2.3375,-0.0473 -5.53585,-0.47129 -7.10745,-0.94226 z m -29.4433,-2.95823 c -4.24202,-1.00464 -4.57147,-1.39437 -3.79477,-4.48902 0.53675,-2.13855 0.95679,-2.40156 2.50884,-1.57093 2.3915,1.27989 7.28914,1.65733 8.8653,0.68321 2.31495,-1.43072 1.30039,-4.54552 -2.02862,-6.22811 -5.6457,-2.85352 -7.75,-5.41344 -7.75,-9.42804 0,-2.31981 0.69039,-4.29549 1.87597,-5.36843 2.33687,-2.11483 7.87419,-3.06929 12.63024,-2.17705 2.99483,0.56183 3.56421,1.05645 3.30588,2.87177 -0.28335,1.99109 -0.7952,2.16159 -5.55835,1.85151 -4.10648,-0.26733 -5.38001,0.007 -5.86188,1.26274 -0.79399,2.06911 1.01956,4.20565 5.28995,6.23209 7.39789,3.51053 7.83781,12.97816 0.74082,15.94347 -3.66741,1.53234 -5.24198,1.59654 -10.22338,0.41679 z M 213.55896,603.38796 c -0.61337,-0.40408 -1.40303,-1.65846 -1.7548,-2.78751 -0.62415,-2.00327 1.97379,-5.75069 19.64885,-28.3426 14.96354,-19.12612 18.72117,-24.83719 18.72117,-28.45355 0,-2.31557 1.51377,-4.4976 6.97505,-10.05422 3.83628,-3.90325 8.33213,-8.9997 9.9908,-11.32545 3.60126,-5.04964 6.59877,-6.04633 11.37204,-3.78126 6.17782,2.93156 5.62585,4.76964 -3.25815,10.84984 -4.43137,3.03283 -12.07974,12.58221 -12.07974,15.08218 0,2.24848 3.399,3.64218 7.16814,2.93918 7.77985,-1.45107 19.83186,-9.87472 19.83186,-13.8613 0,-0.7406 -1.13662,-2.69734 -2.52581,-4.34831 -3.65506,-4.34378 -1.46059,-4.79472 5.43851,-1.11754 7.48811,3.99113 10.50078,7.08772 9.61398,9.8818 -0.72575,2.28662 -16.84918,14.6373 -22.67781,17.37138 -2.00812,0.94197 -5.48062,1.71267 -7.71667,1.71267 -5.6025,0 -9.63829,4.02766 -15.3543,15.32336 -5.01162,9.90372 -10.69963,14.7871 -20.70598,17.77687 -3.12259,0.93299 -6.29118,3.177 -10.74748,7.61141 -6.08053,6.05068 -9.05215,7.42529 -11.93966,5.52305 z m 34.98918,-27.0693 c 1.03068,-0.91597 3.39432,-4.81539 5.25252,-8.66539 1.93526,-4.00966 4.94734,-8.34423 7.05089,-10.14667 l 3.67233,-3.14667 -3.39771,-3.10333 c -1.86874,-1.70683 -4.17017,-3.10333 -5.11429,-3.10333 -1.08426,0 -3.79503,3.36006 -7.35905,9.12174 -3.10336,5.01695 -6.95562,10.93447 -8.56056,13.15004 -3.10586,4.2875 -3.71027,7.22169 -1.66809,8.09784 2.07336,0.88952 8.12546,-0.42817 10.12396,-2.20423 z m 118.12604,-18.22658 c -18.79108,-2.94425 -48.75602,-12.1291 -56.83041,-17.41965 -2.86217,-1.87537 -3.68111,-6.19377 -1.34461,-7.09037 0.72874,-0.27964 4.66624,0.82592 8.75,2.4568 4.08376,1.63089 8.77502,3.28586 10.42502,3.67772 1.65,0.39185 3.45,1.04826 4,1.45868 3.06698,2.28863 32.65763,10.29509 43,11.63468 6.13045,0.79405 33.13596,0.30812 36.50035,-0.65677 1.91755,-0.54995 6.09926,-0.9999 9.29271,-0.9999 3.19344,0 7.02141,-0.61461 8.5066,-1.36581 1.48519,-0.7512 5.17534,-1.9311 8.20034,-2.62201 14.95243,-3.41512 37.62112,-15.00081 52,-26.57656 15.87967,-12.78397 32,-31.01318 32,-36.18629 0,-4.8901 -13.05452,-13.08843 -18.9604,-11.90725 -3.25302,0.6506 -5.0396,-0.8233 -5.0396,-4.1576 0,-2.49352 4.78489,-7.61034 12.4578,-13.322 7.97416,-5.93592 23.52224,-21.88926 25.92743,-26.60325 2.93287,-5.74819 7.30098,-10.08096 11.21909,-11.12833 2.81372,-0.75215 5.58423,-5.27568 4.12494,-6.73497 -1.03025,-1.03025 -12.2648,3.86791 -25.22926,10.99971 -6.6,3.63069 -12.4628,6.60195 -13.02844,6.60281 -0.56564,8.5e-4 -5.64192,2.03194 -11.28063,4.51353 -12.35666,5.43815 -19.70022,7.96109 -27.69093,9.51343 -3.3,0.64109 -9.8807,2.02264 -14.62379,3.0701 -4.74308,1.04747 -9.77343,1.90449 -11.17857,1.90449 -3.33048,0 -6.00769,2.70637 -5.31134,5.3692 0.29787,1.13907 -0.13649,4.40356 -0.96526,7.2544 -1.24714,4.29003 -2.77555,6.38097 -8.86827,12.13219 -10.14522,9.57659 -11.9512,13.37654 -11.30212,23.78061 0.60486,9.69519 -0.0556,11.23678 -6.69956,15.63755 -7.6621,5.07517 -12.55109,10.15674 -12.55109,13.04549 0,3.31938 -2.6436,10.72926 -4.59852,12.88942 -3.6605,4.04482 -21.98327,6.6319 -28.59918,4.03807 -5.91582,-2.31935 -6.60946,-6.81482 -5.77026,-37.39693 0.16236,-5.91677 -1.23846,-16.21061 -2.55506,-18.77573 -0.71302,-1.38915 -2.96704,-4.31415 -5.00894,-6.5 -7.36477,-7.88397 -11.53152,-21.67605 -8.12108,-26.88104 1.98161,-3.02433 1.98128,-3.02447 -10.84696,-4.52839 -7.95159,-0.93221 -17.36718,-2.59897 -28.5,-5.04509 -7.86743,-1.72864 -21.14195,-6.06561 -27.61273,-9.02146 -8.07874,-3.69036 -22.19483,-9.27159 -27.88727,-11.02608 -2.2,-0.67807 -4.45,-1.5732 -5,-1.98918 -0.55,-0.41598 -6.625,-3.65906 -13.5,-7.20684 -6.875,-3.54778 -15.875,-8.61385 -20,-11.25794 -27.80164,-17.82057 -34.98157,-23.60667 -35.02808,-28.22812 -0.0154,-1.53457 -0.22899,-14.82844 -0.47456,-29.54192 -0.24557,-14.71349 -0.043,-27.8131 0.45019,-29.11026 1.1272,-2.96475 7.40773,-5.58863 15.97333,-6.67334 3.53148,-0.44721 9.83148,-1.71775 14,-2.82344 8.14935,-2.16158 26.65579,-4.52084 28.1617,-3.59013 3.44379,2.12838 -5.4948,5.48676 -10.03858,3.77167 -2.3309,-0.87982 -2.75737,-0.78927 -2.65998,0.56474 0.0828,1.15186 -0.88394,1.69068 -3.38402,1.88603 -3.19746,0.24984 -23.12622,4.48722 -28.9375,6.15287 -3.26818,0.93674 -3.7077,2.74807 -0.86755,3.57535 1.26778,0.36928 4.55505,2.14477 7.30505,3.94553 13.24455,8.6728 28.57594,17.62387 29.35816,17.14043 0.47975,-0.2965 1.11945,-2.06229 1.42156,-3.92398 0.30211,-1.86168 2.97128,-7.61011 5.93148,-12.77428 2.9602,-5.16417 6.32206,-11.68772 7.4708,-14.49678 2.27537,-5.56403 6.55214,-12.36049 14.01483,-22.27175 7.19059,-9.54988 27.17693,-29.9281 32.30317,-32.93657 2.475,-1.45251 7.65,-4.71946 11.5,-7.25987 9.28937,-6.12957 11.66477,-7.30115 23.20023,-11.44271 5.38987,-1.93512 10.47477,-3.80659 11.29977,-4.15882 0.825,-0.35223 1.85573,-0.5629 2.29051,-0.46816 0.43478,0.0948 1.60593,-0.26413 2.60255,-0.79751 1.59809,-0.85527 22.42912,-5.63967 29.10694,-6.68518 8.3203,-1.30267 29.25976,-1.96012 39.69501,-1.24634 28.00612,1.91565 57.56264,11.79429 53.74922,17.96453 -1.01762,1.64653 -4.81453,0.94856 -14.44423,-2.65522 -5.225,-1.95538 -15.43294,-4.65844 -22.68431,-6.00678 -11.18894,-2.08052 -16.03196,-2.43844 -32,-2.36499 -19.41543,0.0893 -30.39153,1.35247 -42.31569,4.8698 -3.575,1.05453 -10.48741,3.06372 -15.36091,4.46486 -14.51003,4.17167 -17.97651,7.38579 -14.19316,13.15991 1.39516,2.12929 2.3503,2.44218 7.455,2.44218 6.32401,0 11.9767,1.87763 15.12212,5.02305 1.4323,1.4323 1.97695,3.32936 1.97695,6.88593 l 0,4.90897 10.42197,0.34103 c 9.40433,0.30772 10.6737,0.57774 13,2.76533 3.59658,3.38214 3.2923,6.71809 -1.51953,16.65932 -5.72019,11.81791 -3.88425,15.02324 4.3699,7.6293 7.1011,-6.36105 14.74119,-10.75323 14.72107,-8.46293 -0.013,1.47795 -3.75067,6.39133 -6.09952,8.01812 -1.31664,0.91189 -4.7739,3.58711 -7.6828,5.94493 -5.9539,4.82596 -8.89064,5.32141 -11.98957,2.02275 -3.38308,-3.60113 -3.04741,-8.25443 1.18975,-16.49337 2.05285,-3.99167 3.58513,-8.0226 3.40506,-8.95763 -0.46883,-2.43446 -7.78661,-4.26848 -15.12804,-3.79148 -8.90864,0.57884 -10.48571,-0.0273 -11.68797,-4.49212 -0.56085,-2.08287 -0.75572,-4.47505 -0.43303,-5.31597 1.79904,-4.68822 -5.32809,-8.29496 -14.43376,-7.30431 -3.09844,0.33709 -6.16767,0.26776 -6.82051,-0.15408 -0.65283,-0.42183 -2.09934,-2.89544 -3.21446,-5.49691 -1.11512,-2.60146 -2.33121,-4.72993 -2.70242,-4.72993 -1.16289,0 -10.63504,6.08053 -16.89614,10.84627 -10.98393,8.36061 -16.63626,13.59747 -21.17946,19.6227 -2.47543,3.28294 -5.36988,6.57771 -6.4321,7.32172 -2.59589,1.81823 -9.71273,11.54453 -11.39725,15.57616 -1.2719,3.04407 -1.10553,3.82991 2.68145,12.6656 4.85649,11.33105 4.91627,16.58226 0.27512,24.17057 -3.93894,6.44022 -9.75048,9.47107 -15.40723,8.03524 -9.0777,-2.30417 -4.32816,2.34953 10.45947,10.24841 4.95,2.64407 10.67643,5.86489 12.72539,7.15737 17.3339,10.93422 54.14743,21.4197 83.77461,23.86125 1.925,0.15864 7.44705,0.79869 12.27121,1.42233 10.32477,1.33474 22.56658,1.34426 47.22879,0.0367 21.58198,-1.14422 34.11987,-2.24624 34.94218,-3.07123 1.15092,-1.15468 -0.58722,-3.41206 -6.07755,-7.89313 -3.03244,-2.475 -9.68657,-8.7926 -14.78697,-14.03912 l -9.27345,-9.53911 -1.09333,-7.3664 c -0.60133,-4.05151 -1.75587,-8.02893 -2.56565,-8.83871 -1.29642,-1.29643 -1.92573,-0.97918 -5.26763,2.65551 -4.88257,5.31035 -6.94769,5.31791 -22.13535,0.081 -15.65124,-5.39678 -16.06644,-5.70469 -16.43959,-12.1917 l -0.30266,-5.26143 -6,-0.30779 c -3.66684,-0.1881 -8.08263,0.3471 -11.35574,1.37633 -15.54563,4.88835 -41.2222,25.95456 -48.06107,39.43146 -3.51508,6.92693 -4.61433,8.11715 -6.74251,7.30049 -2.2843,-0.87657 -1.51827,-3.50335 3.51624,-12.05738 7.7119,-13.10314 14.25392,-19.2475 36.79693,-34.56019 2.28099,-1.5494 6.7795,-3.48208 9.9967,-4.29485 3.2172,-0.81277 7.4365,-1.88728 9.37622,-2.3878 1.93973,-0.50052 6.12424,-0.75516 9.29893,-0.56586 7.41747,0.44228 9.6743,2.34675 9.6743,8.16387 0,4.83783 2.4551,7.40172 7.08765,7.40172 1.45345,0 3.71582,0.81785 5.02749,1.81745 7.17823,5.47038 12.59316,5.35765 15.24895,-0.31745 2.27554,-4.86256 3.1269,-5.4651 7.74955,-5.48469 2.58439,-0.011 4.36453,0.73558 6.25,2.62105 1.45,1.45 2.69787,2.2375 2.77305,1.75 0.0752,-0.4875 0.04,-5.61136 -0.0781,-11.38636 -0.15738,-7.69416 0.20428,-11.48715 1.35338,-14.1941 1.8039,-4.24945 1.44707,-5.67477 -2.47059,-9.86864 -3.07807,-3.29509 -4.59639,-9.67858 -3.4949,-14.69365 0.35526,-1.61746 2.23706,-4.47147 4.18179,-6.34223 5.37863,-5.17404 5.81592,-6.46882 3.35293,-9.92777 -2.09337,-2.93987 -5.28363,-3.91134 -6.48121,-1.97361 -0.85023,1.3757 -5.49176,1.22979 -8.42145,-0.26474 -1.3318,-0.67939 -3.84479,-3.26026 -5.58443,-5.73526 l -3.16299,-4.5 -6.53965,0.33459 -6.53965,0.33458 -0.45802,-3.12068 -0.45802,-3.12068 4.58211,0.65105 c 2.52015,0.35807 5.9321,1.21107 7.5821,1.89556 1.65,0.68448 4.30007,1.77662 5.88905,2.42697 1.58898,0.65034 3.7649,2.29591 4.83539,3.65681 1.86345,2.369 2.27648,2.44682 9.70003,1.82772 7.71303,-0.64324 7.76428,-0.63152 9.7713,2.23372 1.19015,1.69908 2.25783,5.29685 2.60334,8.77257 0.524,5.27119 0.31581,6.2461 -1.97537,9.25 -1.40862,1.84678 -3.19236,3.35779 -3.96387,3.35779 -0.77151,0 -1.9145,1.12317 -2.53997,2.49594 -0.91294,2.00368 -0.83225,2.84188 0.40915,4.25 1.98232,2.24856 7.77401,13.79699 7.76118,15.47554 -0.005,0.70319 -1.16775,3.75352 -2.58306,6.77852 -2.31098,4.93934 -2.50453,6.24583 -1.89868,12.81652 0.78733,8.53895 1.90867,9.49255 6.78697,5.77169 3.58658,-2.73562 6.91791,-3.21799 11.13944,-1.61296 2.03513,0.77375 2.56374,1.65184 2.55851,4.25 -0.004,1.80111 -0.90066,4.62475 -1.99341,6.27475 -3.01513,4.5527 -2.47558,6.71469 3.28768,13.17369 2.90823,3.25931 6.5272,8.04108 8.04216,10.62616 3.86444,6.59417 6.55853,6.46053 11.08433,-0.54985 6.89409,-10.67882 10.1992,-12.05267 16.23861,-6.75 2.54915,2.23818 4.40875,3 7.323,3 2.1484,0 4.1843,-0.45 4.52422,-1 0.863,-1.39637 6.84785,-1.25215 8.3,0.2 0.66,0.66 1.2,2.835 1.2,4.83333 0,1.99834 0.2591,3.89244 0.57578,4.20911 0.31667,0.31668 2.22917,-0.24146 4.25,-1.24031 2.02082,-0.99885 8.39922,-4.06176 14.17422,-6.80648 5.775,-2.74471 12.75,-6.49907 15.5,-8.34302 2.75,-1.84394 7.025,-4.22795 9.5,-5.29778 9.67677,-4.18284 27.95612,-17.81181 37.0968,-27.65913 6.31488,-6.80307 6.40762,-8.19896 0.61757,-9.29495 -6.32873,-1.19796 -7.27453,-1.40511 -11.21827,-2.45709 -2.19785,-0.58628 -8.63817,-1.26301 -14.3118,-1.50385 -5.67364,-0.24085 -10.56673,-0.68893 -10.87354,-0.99574 -1.3852,-1.3852 0.88776,-3.4996 4.36961,-4.06478 9.31921,-1.51273 37.29078,3.5886 46.39577,8.46144 2.32886,1.24637 2.87547,4.47189 3.38237,19.95925 0.22502,6.875 0.64189,19.42906 0.92638,27.89791 l 0.51726,15.3979 -6.70107,6.95016 c -3.6856,3.82259 -7.82608,7.53809 -9.20108,8.25667 -1.375,0.71858 -3.625,2.30047 -5,3.51532 -5.39636,4.7678 -8.84111,7.01284 -16.7618,10.92417 -7.66096,3.78307 -9.76756,5.99464 -7.2136,7.57307 1.24403,0.76885 0.54985,7.31157 -2.22648,20.9848 -2.05859,10.13843 -3.25999,13.71022 -9.39327,27.92636 -3.77636,8.7531 -20.02858,36.6093 -22.09655,37.87333 -0.71956,0.43983 -1.3083,1.44852 -1.3083,2.24153 0,0.79301 -0.9,2.00389 -2,2.69085 -1.1,0.68696 -2,1.76978 -2,2.40626 0,2.8842 -16.35509,19.02141 -28.5,28.12033 -8.69501,6.51426 -32.80206,19.07499 -44,22.92575 -3.85,1.32394 -11.95,3.38717 -18,4.58496 -14.6828,2.90692 -44.62271,3.2355 -61,0.66944 z m 22.9046,-23.46056 c 4.73983,-2.2492 6.05425,-4.31713 8.19514,-12.89306 1.59215,-6.37781 2.29891,-7.495 9.10059,-14.38554 4.0559,-4.1089 7.82625,-8.31506 8.37854,-9.34702 0.55229,-1.03197 1.12509,-4.90847 1.27289,-8.61447 0.3504,-8.78647 2.54909,-13.17907 10.6304,-21.23774 7.5171,-7.49604 9.01784,-9.92821 9.01784,-14.61473 l 0,-3.38569 -6.75,-0.0136 c -3.7125,-0.008 -7.875,-0.27155 -9.25,-0.58675 -1.8084,-0.41455 -2.11522,-0.3012 -1.10908,0.40976 3.52336,2.4897 -42.91028,2.65237 -55.86416,0.19571 -2.91486,-0.55284 -7.09342,-1.00512 -9.28569,-1.00512 -3.39407,0 -3.80474,0.21835 -2.76561,1.47043 0.81102,0.97722 1.00089,3.07359 0.56607,6.25 -0.57892,4.229 -0.30884,5.29793 2.34459,9.27957 1.64939,2.475 4.56802,6.1549 6.48586,8.17755 6.4317,6.78322 6.95637,8.11276 6.20612,15.72663 -0.55083,5.59009 -0.28572,8.02682 1.42617,13.10849 1.97161,5.85265 2.00321,6.45179 0.50657,9.60574 -1.44855,3.05257 -1.45311,3.78524 -0.0493,7.92009 0.89484,2.63569 1.31966,6.1171 1.00781,8.25892 -0.29652,2.03642 -0.13159,4.31002 0.3665,5.05244 2.13632,3.1843 13.41905,3.54661 19.56874,0.62839 z M 532.81002,465.9263 c 5.70394,-11.41036 12.17015,-26.17291 14.50814,-33.12255 2.24996,-6.68798 2.25969,-6.88214 0.41221,-8.23305 -2.19197,-1.60281 -4.07543,-0.53391 -5.15026,2.92288 -0.36933,1.18783 -2.07426,3.90717 -3.78872,6.04297 -5.9291,7.38621 -24.13766,24.87268 -29.43931,28.27184 -2.92715,1.87676 -5.13905,3.95962 -4.91531,4.62858 0.23109,0.69097 2.17639,1.2163 4.50397,1.2163 3.05527,0 4.81385,0.6734 6.91532,2.64804 1.54996,1.45643 4.39312,3.59998 6.31812,4.76345 l 3.5,2.11541 2,-2.49042 c 1.1,-1.36974 3.41113,-5.31329 5.13584,-8.76345 z M 415.92418,446.46394 c -0.9625,-0.25152 -2.5375,-0.25152 -3.5,0 -0.9625,0.25153 -0.175,0.45733 1.75,0.45733 1.925,0 2.7125,-0.2058 1.75,-0.45733 z m 7.25,-1.87067 c 20.30125,-1.65571 42.47637,-5.34704 53.5,-8.90577 2.2,-0.71022 7.36642,-2.30539 11.48094,-3.54482 4.11452,-1.23943 12.98544,-4.89408 19.71315,-8.12146 6.72771,-3.22737 12.42427,-5.86795 12.65901,-5.86795 0.51704,0 23.7332,-12.85501 28.6469,-15.86206 1.925,-1.17805 6.2,-3.43704 9.5,-5.01998 7.45444,-3.57575 18.53571,-11.00561 24.57192,-16.47521 2.51456,-2.27851 5.43956,-4.89858 6.5,-5.82238 3.42891,-2.98707 4.65225,-4.91748 6.12341,-9.66267 1.21548,-3.92046 1.26794,-7.50681 0.33146,-22.6577 -0.98903,-16.00096 -1.87891,-29.53956 -1.9883,-30.25 -0.0212,-0.1375 -0.71349,-0.25 -1.53849,-0.25 -0.98428,0 -1.5,0.98499 -1.5,2.86487 0,2.25534 -1.73781,4.59569 -8.16797,11 -4.49238,4.47432 -8.50113,8.13513 -8.90833,8.13513 -0.4072,0 -3.14411,1.95648 -6.08203,4.34774 -2.93792,2.39126 -6.91667,5.1563 -8.84167,6.14454 -1.925,0.98823 -5.975,3.42781 -9,5.42128 -3.025,1.99347 -8.86722,5.19093 -12.98272,7.10547 -4.1155,1.91453 -12.15836,6.06847 -17.87303,9.23097 -5.71467,3.1625 -10.79991,5.75 -11.30053,5.75 -0.50061,0 -3.2536,1.18749 -6.11775,2.63886 -2.86415,1.45138 -6.33669,2.98964 -7.71676,3.41837 -1.38007,0.42873 -6.78421,2.55126 -12.00921,4.71673 -5.225,2.16548 -11.75,4.25926 -14.5,4.65286 -2.75,0.3936 -8.375,1.54517 -12.5,2.55905 -4.125,1.01388 -12,2.12051 -17.5,2.45918 -5.5,0.33867 -19.45,1.21915 -31,1.95663 -11.55,0.73747 -23.475,1.17284 -26.5,0.96748 -10.45023,-0.70945 -37.97164,-3.42092 -39.23373,-3.86539 -1.60744,-0.5661 -5.13536,-1.25033 -15.76627,-3.05781 -19.40494,-3.29926 -38.45836,-8.66084 -48.22148,-13.5694 -3.14682,-1.58211 -6.30785,-2.87656 -7.02452,-2.87656 -1.56658,0 -23.03333,-12.07208 -30.74065,-17.28736 -3.01766,-2.04195 -5.82912,-3.71264 -6.24769,-3.71264 -0.41857,0 -2.89957,-1.4625 -5.51335,-3.25 -2.61377,-1.7875 -5.50951,-3.7 -6.43497,-4.25 -0.92546,-0.55 -8.65815,-5.68808 -17.18375,-11.41795 -11.01542,-7.40323 -15.67561,-11.11335 -16.10422,-12.82104 -0.33172,-1.3217 -1.14904,-2.2173 -1.81625,-1.99022 -1.3908,0.47334 -1.5613,30.83197 -0.25962,46.22921 0.74004,8.7538 0.86665,9.10082 4.62815,12.68566 6.89665,6.57274 33.00162,22.99793 50.07951,31.50993 9.16377,4.56742 16.95444,8.30441 17.3126,8.30441 0.35815,0 7.93557,3.08087 16.83871,6.84638 15.65184,6.61981 27.5004,10.89441 32.68753,11.79267 1.375,0.23811 3.85,0.83854 5.5,1.33429 4.81719,1.44735 22.57813,4.77313 29.5,5.52394 25.81352,2.8 32.18521,3.37415 33.2478,2.99592 0.68871,-0.24515 5.9772,-0.11888 11.7522,0.28059 10.71684,0.74131 24.36987,0.61472 36,-0.33379 z m -59.4343,-10.33369 c -0.54064,-0.87479 3.80751,-16.13301 5.51212,-19.34274 0.5072,-0.95504 0.92218,-2.41754 0.92218,-3.25 0,-1.09384 1.08632,-1.51357 3.91732,-1.51357 l 3.91732,0 3.72964,11.25 c 2.0513,6.1875 3.94934,11.84555 4.21785,12.57344 0.35749,0.96909 -0.41816,1.23684 -2.89696,1 -2.74061,-0.26185 -3.45197,-0.79946 -3.73599,-2.82344 -0.42164,-3.00475 -1.72939,-3.96431 -5.43056,-3.98469 -1.78537,-0.01 -2.97504,0.61137 -3.32216,1.73469 -1.05938,3.42834 -2.02736,4.57068 -4.14712,4.89418 -1.18171,0.18034 -2.38935,-0.0617 -2.68364,-0.53787 z m 12.78195,-13.35631 c -0.68758,-3.70989 -3.34765,-7.35657 -3.34765,-4.58929 0,0.87411 -0.28125,2.99554 -0.625,4.71429 -0.57179,2.85897 -0.40367,3.125 1.975,3.125 2.39023,0 2.5514,-0.26222 1.99765,-3.25 z m 21.26873,10.34308 c -0.85466,-5.16661 -0.75414,-21.08186 0.13362,-21.15415 11.61654,-0.94582 14.25,-0.7351 14.25,1.14025 0,1.59892 -0.72621,1.92082 -4.33333,1.92082 -5.2247,0 -5.44107,0.17706 -4.88081,3.99431 0.41345,2.81707 0.71642,3.00569 4.82764,3.00569 3.71983,0 4.3865,0.30396 4.3865,2 0,1.7037 -0.66667,2 -4.5,2 -4.3777,0 -4.5,0.0853 -4.5,3.13929 l 0,3.13929 5,-0.59217 c 4.48045,-0.53065 5,-0.39124 5,1.34165 0,2.1224 -1.49821,2.62877 -9.64462,3.25967 l -5.14462,0.39843 -0.59438,-3.59308 z m -41.81417,2.22765 c -1.23141,-0.3244 -1.78081,-1.73472 -2,-5.134 l -0.30221,-4.68673 -4.75,-0.30479 -4.75,-0.30479 0,4.55479 c 0,4.19178 -0.19925,4.55479 -2.5,4.55479 l -2.5,0 0,-12.5 0,-12.5 2.5,0 c 2.35659,0 2.5,0.30833 2.5,5.375 0,5.22 0.0901,5.39302 3.125,6 6.82785,1.36557 7.17845,1.13487 6.64902,-4.375 -0.47505,-4.94398 -0.44847,-5 2.37277,-5 l 2.85321,0 0,12.5 c 0,6.875 -0.3375,12.4478 -0.75,12.384 -0.4125,-0.0638 -1.51401,-0.31727 -2.44779,-0.56327 z m 62.19779,-8.16934 c 0,-4.32974 -0.29114,-9.99633 -0.64697,-12.59242 l -0.64697,-4.72018 2.89697,0.33061 c 1.59333,0.18183 2.95322,0.8931 3.02197,1.5806 0.0688,0.6875 0.18125,5.13297 0.25,9.87883 l 0.125,8.62883 5,-0.66327 c 4.54652,-0.60312 5,-0.48287 5,1.32585 0,2.04849 -0.32627,2.15591 -10.75,3.53934 l -4.25,0.56406 0,-7.87225 z m -92.61019,3.25471 c -6.51276,-2.34442 -8.73268,-5.40987 -9.18865,-12.68841 -0.35215,-5.62148 -0.14685,-6.44443 2.1411,-8.58228 4.58333,-4.28267 17.17782,-2.84019 15.95716,1.82761 -0.41208,1.5758 -0.89922,1.78634 -2.34406,1.01309 -5.98037,-3.2006 -11.77274,0.85332 -10.54792,7.38219 0.79904,4.25927 3.62982,6.85532 8.93002,8.18953 2.49139,0.62715 4.16254,1.63084 4.16254,2.5 0,1.99046 -4.12533,2.15269 -9.11019,0.35827 z m 111.43162,-8.4061 c -0.0982,-5.5 -0.21072,-11.00634 -0.25,-12.2363 -0.0824,-2.58012 3.19338,-3.74243 4.54343,-1.61209 0.46998,0.74161 0.86141,6.41089 0.86983,12.59839 l 0.0153,11.25 -2.5,0 c -2.4881,0 -2.50085,-0.0476 -2.67857,-10 z m 10.17857,-3.90138 0,-12.83694 3.69749,-0.60002 c 2.03362,-0.33001 3.83496,-0.46254 4.00298,-0.29452 0.16802,0.16801 1.35407,3.30407 2.63568,6.96901 2.73218,7.81308 3.65832,9.09218 3.67858,5.08052 0.025,-4.95969 3.54927,-14.73025 5.6043,-15.53736 5.50188,-2.16084 5.78803,-1.57212 6.92101,14.23905 0.61661,8.60495 0.61368,8.6191 -1.8847,9.09669 -2.87204,0.54903 -3.61936,-1.06872 -3.64169,-7.88326 -0.0279,-8.51713 -1.35253,-8.11299 -3.51815,1.07336 -1.67562,7.10779 -2.52981,9.0634 -4.23424,9.69391 -1.94028,0.71775 -2.33061,0.17882 -4.27647,-5.90461 -3.2868,-10.27567 -3.41344,-10.30137 -3.9668,-0.80497 -0.47036,8.07206 -0.72489,8.96565 -2.76799,9.71778 l -2.25,0.82829 0,-12.83693 z m -156.32765,2.79346 c -5.13442,-2.70901 -6.67235,-6.71035 -6.67235,-17.35996 0,-4.69267 0.3375,-8.52598 0.75,-8.51847 0.4125,0.008 1.78751,0.29154 3.05557,0.63117 2.15799,0.57798 2.26268,0.96076 1.63554,5.98023 -0.97712,7.82059 0.19794,14.09234 2.9821,15.91659 4.21746,2.76339 5.37337,1.13937 6.13701,-8.62224 0.38376,-4.90567 1.0529,-8.9194 1.48698,-8.9194 3.3804,0 3.9528,1.3283 3.9528,9.17273 0,13.35133 -3.83805,16.72622 -13.32765,11.71935 z m 192.49292,-1.70244 c -3.33331,-0.50105 -5.16527,-5.66167 -5.16527,-14.55053 0,-7.3064 0.61583,-8.63911 3.99202,-8.63911 0.45564,0 1.14608,3.81326 1.53431,8.47391 0.77055,9.2503 1.97841,11.3967 5.38683,9.57257 3.54121,-1.8952 4.32462,-4.73541 3.73126,-13.52759 -0.53404,-7.91335 -0.46396,-8.28008 1.77742,-9.30132 2.30932,-1.0522 2.34037,-0.98298 3.01168,6.71277 0.74933,8.59016 0.17179,12.28485 -2.52393,16.1462 -2.0439,2.9277 -8.26488,5.63611 -11.74432,5.1131 z m -215.91527,-6.9551 c -1.8423,-1.85858 -8.01452,-25.80336 -6.93068,-26.8872 1.54755,-1.54754 5.43081,2.68858 6.05755,6.60799 1.39261,8.70895 2.8619,14.2019 3.58193,13.39112 0.41344,-0.46555 1.80131,-3.88747 3.08415,-7.60427 2.04529,-5.92588 2.58632,-6.68146 4.39474,-6.1376 4.13546,1.24368 4.15476,1.14496 -4.13365,21.14542 -0.7507,1.81148 -4.02372,1.5328 -6.05404,-0.51546 z m 243.36943,-4.04156 c -0.23546,-0.38114 -0.58051,-5.59603 -0.76676,-11.58866 l -0.33864,-10.89567 3.90458,-2.47116 c 5.05878,-3.20163 11.29462,-4.14837 12.17707,-1.84876 0.34764,0.90596 0.0715,3.00059 -0.61369,4.65475 -1.05775,2.55364 -0.99948,3.27972 0.38612,4.81078 2.43371,2.68923 1.99083,6.71589 -1.11811,10.16574 -2.82134,3.13071 -12.86316,8.41515 -13.63057,7.17298 z m 10.87425,-10.17306 c 0.9854,-3.10473 -0.15566,-4.03372 -3.51578,-2.86237 -2.52281,0.87946 -2.9779,1.56195 -2.9779,4.46596 l 0,3.42785 2.92913,-1.51471 c 1.61102,-0.83309 3.21507,-2.41562 3.56455,-3.51673 z m -2.80813,-8.19423 c 2.66589,-2.50448 3.02603,-4.82569 0.74871,-4.82569 -2.97653,0 -5.43426,2.05111 -5.43426,4.53518 0,3.0429 1.64706,3.14502 4.68555,0.29051 z m -276.0298,9.77379 c -4.58417,-4.4553 -5.98845,-8.01526 -6.03521,-15.29974 -0.0436,-6.79597 6.13333,-9.28799 12.45778,-5.02594 7.22403,4.86827 10.50444,14.00237 7.55981,21.04986 -1.40283,3.35744 -1.87951,3.67634 -5.49533,3.67634 -3.32657,0 -4.68278,-0.7032 -8.48705,-4.40052 z m 8.94877,-3.15988 c 1.77881,-7.08736 -2.08021,-14.9509 -6.98677,-14.23697 -4.10805,0.59774 -4.14296,9.8596 -0.0538,14.27188 3.08164,3.32515 6.20112,3.30968 7.04056,-0.0349 z m 280.39503,-2.94015 c -2.17348,-2.61887 -2.39303,-9.90228 -0.45173,-14.9855 2.14154,-5.60754 9.14216,-11.51395 13.64701,-11.51395 6.17823,0 7.45652,12.03643 2.13267,20.0813 -4.46042,6.74015 -12.32701,10.03407 -15.32795,6.41815 z m 10.47963,-5.88772 c 2.64241,-2.64241 4.08164,-8.2411 3.11183,-12.10516 -0.46593,-1.8564 -1.29116,-2.50657 -3.18149,-2.50657 -4.30628,0 -7.40952,4.4957 -7.40952,10.73426 0,6.37453 3.28109,8.07556 7.47918,3.87747 z m -317.66425,2.77463 c -1.34544,-1.34544 -1.5243,-3.23491 -1.07615,-11.36794 l 0.53749,-9.75429 -3.13813,-2.32012 c -2.62,-1.93705 -4.39216,-5.94401 -2.62887,-5.94401 1.62249,0 17.49073,11.42384 17.49073,12.5919 0,1.61052 -2.57155,1.91037 -3.5,0.4081 -0.33992,-0.55 -1.26648,-1 -2.05902,-1 -1.12088,0 -1.44401,1.61051 -1.45463,7.25 -0.014,7.439 -0.70696,11.75 -1.8887,11.75 -0.36799,0 -1.39522,-0.72614 -2.28272,-1.61364 z m 329.80643,-18.13636 c -0.75676,-13.01035 -1.37021,-11.2845 6.2046,-17.45586 1.15159,-0.93823 3.34936,-1.83823 4.88392,-2 2.48225,-0.26168 2.82432,0.0594 3.10003,2.90965 0.17045,1.76209 -0.19827,4.15336 -0.81939,5.31393 -0.7045,1.31637 -0.78162,2.55629 -0.20501,3.2962 0.50837,0.65235 1.44209,2.72289 2.07494,4.60121 0.96643,2.8684 0.88481,3.70888 -0.50989,5.25 -2.17804,2.4067 -3.00589,2.31465 -3.73331,-0.41513 -0.95861,-3.59737 -2.15586,-4.86428 -3.9472,-4.17688 -1.26595,0.48579 -1.67005,1.9083 -1.67005,5.87888 0,3.80452 -0.50048,5.69095 -1.82874,6.89301 -1.00581,0.91025 -2.06223,1.65499 -2.3476,1.65499 -0.28537,0 -0.8264,-5.2875 -1.2023,-11.75 z m 6.97894,-7.01531 c 1.31071,-0.87519 3.3997,-4.66578 3.3997,-6.16895 0,-1.44501 -3.31341,-1.35233 -4.8,0.13426 -1.30464,1.30464 -1.66976,6.80959 -0.45,6.78469 0.4125,-0.008 1.24513,-0.34592 1.8503,-0.75 z m -349.96885,16.28658 c -1.71275,-1.29714 -1.8109,-2.39835 -1.17716,-13.2077 0.38026,-6.48592 0.83979,-11.94098 1.02117,-12.12236 0.18138,-0.18138 1.31589,0.26389 2.52113,0.9895 1.98234,1.19346 2.13469,1.88169 1.59738,7.21598 -0.32669,3.24318 -0.59397,8.75568 -0.59397,12.25 0,6.6762 -0.34,7.16821 -3.36855,4.87458 z m -7.30482,-5.29351 c -1.28902,-1.02472 -3.05801,-4.67784 -4.34741,-8.97776 -1.19571,-3.9875 -2.52268,-7.25 -2.94881,-7.25 -0.42614,0 -1.0717,1.85672 -1.43458,4.12605 -0.64439,4.02982 -0.70568,4.08451 -2.6278,2.34501 -1.74531,-1.57948 -1.96803,-3.11485 -1.96803,-13.56703 0,-6.4823 0.38986,-12.02694 0.86635,-12.32143 1.84592,-1.14084 4.02169,3.10148 4.32313,8.42927 l 0.31052,5.48813 2.61467,-2.75 c 3.20758,-3.37359 3.92294,-3.40332 6.85266,-0.28478 l 2.31595,2.46522 -3.13532,1.78478 c -1.72442,0.98163 -3.13816,2.57312 -3.14164,3.53666 -0.003,0.96353 1.31873,5.57603 2.93823,10.25 1.6195,4.67396 2.632,8.48811 2.25,8.47588 -0.382,-0.0122 -1.67257,-0.79973 -2.86792,-1.75 z m 369.01361,-6.5605 c 0.36327,-1.008 1.35739,-7.308 2.20916,-14 1.9174,-15.06428 1.85104,-14.84787 5.34526,-17.43126 l 2.87454,-2.12524 3.21781,7.69462 c 1.7698,4.23204 3.6998,8.28479 4.28888,9.00611 0.80269,0.98288 0.41071,1.92379 -1.56443,3.75524 -2.60976,2.41991 -2.64612,2.42388 -3.72533,0.40735 l -1.08986,-2.03641 -2.86129,2.03742 c -1.97354,1.40529 -3.06493,3.24271 -3.51761,5.92212 -0.38745,2.29325 -1.71763,4.85113 -3.24697,6.24374 -2.12419,1.93428 -2.47173,2.02905 -1.93016,0.52631 z m 9.37487,-22.49348 c -1.71723,-4.08411 -2.71511,-3.08624 -2.71511,2.71511 l 0,4.55555 2.03179,-2.03179 c 1.8424,-1.8424 1.9061,-2.33075 0.68332,-5.23887 z m -121.51216,36.94963 c 1.26338,-0.48213 4.54705,-1.40759 7.29705,-2.05658 6.46689,-1.52618 27.15807,-9.71814 29.33806,-11.6154 0.18593,-0.16181 -0.67539,-1.66497 -1.91405,-3.34034 -2.15936,-2.92069 -2.48226,-3.02208 -7.84102,-2.46198 -3.99146,0.41719 -6.69484,0.12208 -9.45808,-1.03247 -5.3648,-2.24156 -6.93939,-2.03983 -8.84628,1.13336 -0.90892,1.5125 -3.00558,4.2125 -4.65924,6 -2.60781,2.81888 -3.65929,3.25 -7.92666,3.25 -3.99202,0 -5.42108,-0.50108 -7.57662,-2.65662 -1.46115,-1.46114 -2.9,-3.82364 -3.19746,-5.25 -1.07427,-5.15129 -3.25556,-8.72351 -6.79959,-11.13545 -5.36152,-3.64885 -6.61007,-8.7419 -4.09592,-16.70793 0.58278,-1.84651 0.33196,-2.25 -1.39864,-2.25 -1.44065,0 -2.6657,1.15948 -3.86663,3.65969 -2.67453,5.56806 -4.61791,6.32288 -7.70447,2.99244 -4.08775,-4.41076 -4.90204,-2.32651 -3.06608,7.84787 0.61952,3.43319 8.03789,11.45438 17.5721,19 3.47474,2.75 8.82036,7.35343 11.87915,10.22985 5.58583,5.25279 7.86927,6.0708 12.26438,4.39356 z M 248.20056,339.13981 c 4.12574,-2.10479 7.16506,-6.75715 8.29706,-12.70048 0.71886,-3.77427 -3.31612,-15.6255 -5.46854,-16.06175 -0.83274,-0.16878 -2.65609,2.5458 -4.70178,7 -1.83785,4.00163 -4.69345,10.18317 -6.34579,13.73675 l -3.00425,6.46106 2.20924,1.78894 c 2.81845,2.28224 4.16621,2.24867 9.01406,-0.22452 z m 172.97362,195.10325 c 0,-1.60062 1.34964,-5.76312 2.99921,-9.25 1.64957,-3.48689 3.01986,-7.23979 3.04511,-8.33979 0.1375,-5.99238 9.06744,-15.96676 19.4726,-21.7501 10.08965,-5.60798 12.42918,-4.9208 12.46943,3.66255 0.0171,3.65765 -5.01392,11.60846 -9.52066,15.04592 -2.15805,1.64603 -4.75693,5.38249 -7.02811,10.10447 -3.51486,7.30769 -3.7656,7.56598 -10.15901,10.46489 -8.64128,3.91814 -11.27857,3.93265 -11.27857,0.0621 z m 21.25422,-14.90378 c 0.96482,-0.82699 2.24632,-3.34466 2.84777,-5.59481 0.60146,-2.25016 1.49565,-4.5826 1.98711,-5.18321 0.49145,-0.6006 0.59745,-1.3881 0.23556,-1.75 -0.3619,-0.36189 -0.13299,-0.65799 0.50867,-0.65799 1.8063,0 1.38087,-2.52946 -0.86436,-5.13922 l -2.03104,-2.36078 0.28104,2.4073 c 0.20786,1.7805 -0.48215,2.83324 -2.65002,4.04316 -1.61208,0.89972 -3.13296,2.24157 -3.37973,2.98189 -0.27077,0.81231 0.003,1.06699 0.69,0.6423 1.54309,-0.95368 5.3013,0.32425 4.54627,1.5459 -0.38745,0.62691 -1.05217,0.60424 -1.85653,-0.0633 -1.24005,-1.02917 -2.56896,-0.4715 -2.56896,1.07803 0,0.44107 0.675,0.54293 1.5,0.22635 2.23323,-0.85697 1.85377,2.65613 -0.60901,5.63837 -1.1355,1.375 -1.77394,1.9375 -1.41875,1.25 0.38315,-0.74163 0.0117,-1.25 -0.91322,-1.25 -0.85746,0 -1.44652,0.5625 -1.30902,1.25 0.14709,0.73543 -1.01115,1.37327 -2.81361,1.54946 -2.11264,0.2065 -3.57889,1.17177 -4.72365,3.10968 -0.91302,1.54563 -1.37818,3.09208 -1.03369,3.43657 0.65496,0.65496 10.54122,-4.55917 13.57517,-7.1597 z M 266.81798,507.60746 c -2.55409,-1.95019 -4.64941,-3.86269 -4.65627,-4.25 -0.007,-0.3873 -1.77808,-2.60508 -3.93606,-4.9284 -2.15797,-2.32331 -6.36116,-7.27331 -9.34042,-11 -13.24207,-16.56418 -32.42328,-66.0979 -27.7677,-71.70754 1.65173,-1.99021 3.88739,-1.97585 10.36875,0.0666 8.70179,2.74213 9.67253,4.28781 10.6433,16.94696 0.4605,6.00502 1.32364,12.15797 1.9181,13.67324 0.59445,1.51527 5.35351,7.08363 10.57568,12.37414 5.22216,5.29051 9.76038,10.45574 10.08493,11.47829 0.32454,1.02255 -0.11287,4.60303 -0.97202,7.95663 -2.72188,10.62456 -2.2531,12.57829 4.93157,20.55289 5.85053,6.49376 6.64781,8.0825 5.33603,10.63302 -1.24145,2.41378 -1.8826,2.25356 -7.18589,-1.79581 z m -12.2628,-29.26164 c 0.27446,-0.4441 0.78965,-3.0316 1.14484,-5.75 l 0.64582,-4.94255 -6.75111,-6.76502 c -3.7131,-3.72077 -7.32329,-7.77077 -8.02262,-9 -3.81163,-6.69977 -5.40048,-11.07456 -5.42238,-14.93012 -0.0534,-9.39914 -3.35067,-17.36561 -6.6617,-16.09505 -3.12535,1.1993 0.50695,14.18717 8.61103,30.79019 2.6846,5.5 5.81822,12.1361 6.9636,14.74689 2.68827,6.12768 6.87818,12.75311 8.06505,12.75311 0.51064,0 1.153,-0.36335 1.42747,-0.80745 z M 544.30729,337.40199 c -0.55121,-1.02996 -1.70837,-4.91754 -2.57145,-8.63908 -1.82514,-7.86984 -4.99816,-13.71563 -10.10604,-18.61874 -2.00018,-1.91999 -4.99622,-6.1909 -6.65787,-9.4909 -3.85404,-7.65406 -7.9368,-13.2545 -14.61937,-20.05383 -5.66752,-5.76653 -6.68116,-9.65914 -2.66513,-10.2347 4.04598,-0.57984 20.19408,18.51033 27.07899,32.0126 0.91873,1.80176 3.59027,6.20093 5.93674,9.77593 2.34647,3.575 4.82141,8.3 5.49988,10.5 0.67846,2.2 1.88916,5.62385 2.69044,7.60855 1.94665,4.82166 1.38554,8.30534 -1.40164,8.70213 -1.33964,0.19072 -2.56933,-0.41242 -3.18455,-1.56196 z M 391.17418,277.64348 c 0,-1.38038 -0.96842,-3.29288 -2.15205,-4.25 -5.29559,-4.28217 -14.68028,-14.13658 -15.28888,-16.0541 -0.90702,-2.85775 0.8584,-5.83351 4.61255,-7.77486 l 3.11233,-1.60945 -0.6727,5.07108 -0.6727,5.07108 4.97755,3.27802 c 6.72758,4.43051 9.64917,9.84119 9.19459,17.02802 -0.17842,2.82074 -3.11069,2.10453 -3.11069,-0.75979 z M 504.84085,263.4866 c -0.36667,-0.36666 -0.66667,-1.8626 -0.66667,-3.3243 0,-3.01555 8.92137,-12.70141 20.27188,-22.00903 6.43468,-5.27656 9.68999,-9.84369 10.00595,-14.03815 0.0843,-1.11869 0.87564,-1.96185 1.84135,-1.96185 1.25875,0 1.54704,-0.5777 1.12284,-2.25 -0.80052,-3.15583 -3.07699,-6.47269 -4.9306,-7.18399 -1.2915,-0.4956 -1.45767,-0.0472 -0.94062,2.53797 0.53123,2.65616 0.40613,2.95578 -0.81197,1.94484 -0.79197,-0.65727 -1.19355,-1.83715 -0.8924,-2.62193 0.33989,-0.88574 -0.0875,-1.42689 -1.12683,-1.42689 -1.25219,0 -1.5043,0.53587 -0.99985,2.12523 0.50635,1.59536 0.33616,1.95086 -0.68262,1.42584 -0.74642,-0.38466 -0.62962,-0.0978 0.25955,0.63753 1.33633,1.10507 1.387,1.55147 0.29221,2.57416 -0.72846,0.68048 -1.79347,1.23724 -2.36668,1.23724 -0.57322,0 -1.04221,0.60929 -1.04221,1.35398 0,1.67232 -4.49866,6.64602 -6.01127,6.64602 -0.60872,0 -0.84787,-0.41891 -0.53144,-0.9309 0.88152,-1.42633 -1.4821,-2.44429 -2.74442,-1.18197 -0.81716,0.81716 -0.79401,1.11287 0.0871,1.11287 0.66,0 1.2,0.675 1.2,1.5 0,0.825 -0.45,1.5 -1,1.5 -0.55,0 -1,-0.525 -1,-1.16667 0,-1.53474 -1.33213,-0.17808 -1.59697,1.62638 -0.12263,0.83559 0.36487,1.18285 1.20696,0.85971 0.99396,-0.38142 1.22288,-0.0474 0.77231,1.12671 -0.35221,0.91785 -1.18562,1.45958 -1.85203,1.20386 -0.6664,-0.25572 -1.84583,-0.0141 -2.62095,0.53686 -1.116,0.7933 -1.04509,0.88465 0.34068,0.43887 0.9625,-0.30962 1.75,-0.12707 1.75,0.40566 0,0.53274 -0.54,0.96862 -1.2,0.96862 -0.86831,0 -0.89778,0.30222 -0.10665,1.09335 0.79114,0.79114 2.29758,-0.2401 5.45,-3.73082 10.13892,-11.22698 14.69509,-15.58041 15.67329,-14.97585 0.59262,0.36626 -1.88205,3.75746 -5.74899,7.8782 -3.73423,3.97931 -10.56459,11.70022 -15.17858,17.15756 -11.90448,14.08042 -14.44244,16.57756 -16.84854,16.57756 -1.16942,0 -4.24443,-1.93613 -6.83337,-4.3025 -2.58894,-2.36638 -7.7461,-6.68127 -11.46036,-9.58865 -7.95215,-6.22464 -9.13794,-8.98409 -5.55368,-12.92393 2.36561,-2.6003 5.16243,-6.49685 7.3849,-10.28872 0.59292,-1.0116 3.29292,-4.23497 6,-7.16305 2.70709,-2.92807 8.04102,-8.9808 11.85319,-13.45051 7.70897,-9.03866 9.65864,-10.28264 16.11584,-10.28264 4.7114,0 5.46877,-0.51325 10.95295,-7.42264 4.75531,-5.9911 5.48861,-6.57736 8.22704,-6.57736 2.36352,0 8.73808,3.91122 10.50765,6.44714 1.58313,2.26874 0.61715,6.02993 -2.55539,9.94987 -5.18451,6.40588 -5.17153,6.16809 -0.73728,13.50704 5.37168,8.89042 6.24754,12.11364 4.94371,18.19315 -1.22744,5.72336 -6.82314,12.47186 -16.26592,19.61696 -3.3659,2.54688 -9.11356,7.4781 -12.77258,10.95826 -6.5148,6.19635 -7.83256,7.00891 -9.18056,5.66091 z m -8.16667,-10.33333 c 0.99549,-1.1 2.31729,-2 2.93734,-2 1.11432,0 11.56266,-10.21107 11.56266,-11.30007 0,-0.30992 -1.2375,-0.40019 -2.75,-0.20061 -1.5125,0.19958 -3.05175,0.39389 -3.42054,0.43178 -0.3688,0.0379 -0.95091,1.34539 -1.29358,2.90554 -0.52563,2.39319 -1.08522,2.80915 -3.57946,2.66077 -2.75372,-0.16382 -2.9585,0.0702 -2.98683,3.41335 -0.0255,3.01428 -0.20018,3.2973 -1.09023,1.7668 -0.5829,-1.00234 -0.78564,-2.91484 -0.45054,-4.25 0.3465,-1.38055 0.16977,-2.42756 -0.40977,-2.42756 -0.56048,0 -1.01905,0.44143 -1.01905,0.98095 0,0.53952 -1.125,1.2633 -2.5,1.60841 -1.375,0.3451 -2.5,1.05523 -2.5,1.57807 0,0.52283 -0.35899,0.72874 -0.79775,0.45757 -0.43876,-0.27117 -1.45126,-0.0645 -2.25,0.45928 -1.26389,0.8288 -1.2577,1.07076 0.0477,1.86555 0.825,0.50228 2.4,1.60474 3.5,2.4499 2.72878,2.0966 4.8505,1.97545 7,-0.39973 z m 2,-4 c 0.33992,-0.55 1.06803,-1 1.61803,-1 0.55,0 0.72189,0.45 0.38197,1 -0.33992,0.55 -1.06803,1 -1.61803,1 -0.55,0 -0.72189,-0.45 -0.38197,-1 z m 6.5,-6.44098 c 0,-0.85746 0.45,-1.55902 1,-1.55902 0.55,0 1,0.42344 1,0.94098 0,0.51754 -0.45,1.2191 -1,1.55902 -0.55,0.33992 -1,-0.0835 -1,-0.94098 z m -20.09901,-6.97896 c 1.42945,-0.74505 3.81818,-1.83736 5.30828,-2.42735 1.56585,-0.61999 3.57598,-2.7716 4.76286,-5.09809 1.12948,-2.21395 3.18278,-4.76524 4.56289,-5.66953 1.38012,-0.90428 4.98988,-5.41086 8.02169,-10.01462 3.03181,-4.60376 5.94684,-8.37047 6.47784,-8.37047 0.531,0 0.96545,-0.675 0.96545,-1.5 0,-0.90755 -0.92762,-1.5 -2.3486,-1.5 -2.48232,0 -15.69993,11.01797 -19.79407,16.5 -1.23227,1.65 -5.56221,6.70219 -9.62209,11.22708 -9.163,10.21252 -8.67015,12.24016 1.66575,6.85298 z m 37.70696,-16.33006 c 1.76803,-2.32909 1.72725,-3.31586 -0.10795,-2.61163 -0.825,0.31659 -1.5,1.16496 -1.5,1.88529 0,0.72032 -0.5625,1.53665 -1.25,1.81406 -0.91313,0.36845 -0.87546,0.52566 0.13976,0.58333 0.76436,0.0434 1.98755,-0.70855 2.71819,-1.67105 z"
       id="path3082"
       inkscape:connector-curvature="0"
       inkscape:export-filename="/home/pricetula/kiuini.github.io/images/logoA.png"
       inkscape:export-xdpi="90"
       inkscape:export-ydpi="90" />
  </g>
</svg>
